<svg width="41" height="69" viewBox="0 0 41 69" fill="none" xmlns="http://www.w3.org/2000/svg">
<path d="M35.6624 0H5.33755C2.3944 0 0 2.4114 0 5.37544V10.1207C0 10.6786 0.448975 11.1309 1.00307 11.1309C1.55717 11.1309 2.00615 10.6786 2.00615 10.1207V5.37544C2.00615 3.52544 3.50059 2.02039 5.33755 2.02039H35.6624C37.4994 2.02039 38.9939 3.52544 38.9939 5.37544V25.5672H2.00615V14.8349C2.00615 14.277 1.55717 13.8247 1.00307 13.8247C0.448975 13.8247 0 14.277 0 14.8349V63.6246C0 66.5886 2.3944 69 5.33755 69H35.6624C38.6056 69 41 66.5886 41 63.6246V5.37544C41 2.4114 38.6056 0 35.6624 0ZM38.9939 63.6247C38.9939 65.4747 37.4994 66.9797 35.6624 66.9797H5.33755C3.50059 66.9797 2.00615 65.4747 2.00615 63.6247V27.5876H38.994L38.9939 63.6247Z" fill="white"/>
<path d="M29.8366 13.7936C29.8366 8.60886 25.6483 4.39069 20.5 4.39069C15.3517 4.39069 11.1634 8.60873 11.1634 13.7936C11.1634 18.9784 15.3517 23.1965 20.5 23.1965C25.6483 23.1965 29.8366 18.9783 29.8366 13.7936ZM13.1697 13.7936C13.1697 9.7229 16.4582 6.41108 20.5001 6.41108C24.5421 6.41108 27.8306 9.72277 27.8306 13.7936C27.8306 17.8644 24.5421 21.1761 20.5001 21.1761C16.4582 21.1761 13.1697 17.8643 13.1697 13.7936Z" fill="white"/>
<path d="M25.4604 13.7936C25.4604 11.039 23.2352 8.79811 20.5 8.79811C17.7648 8.79811 15.5396 11.0391 15.5396 13.7936C15.5396 16.5481 17.7648 18.7891 20.5 18.7891C23.2352 18.7891 25.4604 16.5482 25.4604 13.7936ZM17.5458 13.7936C17.5458 12.153 18.871 10.8185 20.5 10.8185C22.129 10.8185 23.4543 12.1532 23.4543 13.7936C23.4543 15.434 22.129 16.7687 20.5 16.7687C18.871 16.7687 17.5458 15.4341 17.5458 13.7936Z" fill="white"/>
<path d="M10.9164 55.4454H30.0836C31.5394 55.4454 32.7237 54.2526 32.7237 52.7865V32.7534C32.7237 31.2873 31.5394 30.0946 30.0836 30.0946H27.4992C26.9451 30.0946 26.4961 30.5469 26.4961 31.1048C26.4961 31.6627 26.9451 32.115 27.4992 32.115H30.0836C30.4332 32.115 30.7176 32.4013 30.7176 32.7534V52.7864C30.7176 53.1385 30.4332 53.4248 30.0836 53.4248H10.9164C10.5668 53.4248 10.2824 53.1385 10.2824 52.7864V32.7534C10.2824 32.4013 10.5668 32.115 10.9164 32.115H22.7736C23.3277 32.115 23.7767 31.6627 23.7767 31.1048C23.7767 30.5469 23.3277 30.0946 22.7736 30.0946H10.9164C9.46058 30.0946 8.27629 31.2873 8.27629 32.7534V52.7864C8.27629 54.2525 9.46058 55.4454 10.9164 55.4454Z" fill="white"/>
<path d="M20.682 33.7972C18.9121 33.7477 17.2391 34.4052 15.9716 35.6469C14.7038 36.889 14.0057 38.554 14.0057 40.335V43.2825L13.2295 45.494C13.0014 46.1438 13.1011 46.8676 13.4961 47.4302C13.8912 47.993 14.5356 48.3289 15.2201 48.3289H16.2954C16.7143 50.2792 18.4401 51.7451 20.5 51.7451C22.5599 51.7451 24.2857 50.2791 24.7046 48.3289H25.7799C26.4643 48.3289 27.1088 47.993 27.5039 47.4302C27.8989 46.8676 27.9986 46.1438 27.7706 45.494L26.9943 43.2824V40.4499C26.9944 36.8777 24.1627 33.8932 20.682 33.7972ZM20.5 49.725C19.557 49.725 18.7449 49.1497 18.3918 48.3292H22.6081C22.2551 49.1496 21.443 49.725 20.5 49.725ZM25.8659 46.2639C25.8345 46.3088 25.7934 46.3088 25.7799 46.3088H15.22C15.2065 46.3088 15.1655 46.3088 15.134 46.2639C15.1027 46.2192 15.1158 46.1817 15.1207 46.1676L15.9542 43.7926C15.9922 43.6844 16.0116 43.5706 16.0116 43.4558V40.335C16.0116 39.1042 16.4941 37.9535 17.3703 37.095C20.2265 34.2961 24.988 36.5321 24.988 40.45V43.4558C24.988 43.5706 25.0074 43.6844 25.0454 43.7926L25.8789 46.1676C25.8841 46.1817 25.8974 46.2192 25.8659 46.2639Z" fill="white"/>
<path d="M10.9368 59.5523C11.6755 59.5523 12.2743 58.9492 12.2743 58.2054C12.2743 57.4615 11.6755 56.8584 10.9368 56.8584C10.1982 56.8584 9.59941 57.4615 9.59941 58.2054C9.59941 58.9492 10.1982 59.5523 10.9368 59.5523Z" fill="white"/>
<path d="M15.7184 59.5523C16.4571 59.5523 17.0559 58.9492 17.0559 58.2054C17.0559 57.4615 16.4571 56.8584 15.7184 56.8584C14.9798 56.8584 14.381 57.4615 14.381 58.2054C14.381 58.9492 14.9798 59.5523 15.7184 59.5523Z" fill="white"/>
<path d="M20.5 59.5523C21.2387 59.5523 21.8374 58.9492 21.8374 58.2054C21.8374 57.4615 21.2387 56.8584 20.5 56.8584C19.7614 56.8584 19.1626 57.4615 19.1626 58.2054C19.1626 58.9492 19.7614 59.5523 20.5 59.5523Z" fill="white"/>
<path d="M25.2816 59.5523C26.0202 59.5523 26.619 58.9492 26.619 58.2054C26.619 57.4615 26.0202 56.8584 25.2816 56.8584C24.5429 56.8584 23.9442 57.4615 23.9442 58.2054C23.9442 58.9492 24.5429 59.5523 25.2816 59.5523Z" fill="white"/>
<path d="M30.0632 59.5523C30.8018 59.5523 31.4006 58.9492 31.4006 58.2054C31.4006 57.4615 30.8018 56.8584 30.0632 56.8584C29.3245 56.8584 28.7257 57.4615 28.7257 58.2054C28.7257 58.9492 29.3245 59.5523 30.0632 59.5523Z" fill="white"/>
<path d="M10.9368 63.8985C11.6755 63.8985 12.2743 63.2955 12.2743 62.5516C12.2743 61.8077 11.6755 61.2047 10.9368 61.2047C10.1982 61.2047 9.59941 61.8077 9.59941 62.5516C9.59941 63.2955 10.1982 63.8985 10.9368 63.8985Z" fill="white"/>
<path d="M15.7184 63.8985C16.4571 63.8985 17.0559 63.2955 17.0559 62.5516C17.0559 61.8077 16.4571 61.2047 15.7184 61.2047C14.9798 61.2047 14.381 61.8077 14.381 62.5516C14.381 63.2955 14.9798 63.8985 15.7184 63.8985Z" fill="white"/>
<path d="M20.5 63.8985C21.2387 63.8985 21.8374 63.2955 21.8374 62.5516C21.8374 61.8077 21.2387 61.2047 20.5 61.2047C19.7614 61.2047 19.1626 61.8077 19.1626 62.5516C19.1626 63.2955 19.7614 63.8985 20.5 63.8985Z" fill="white"/>
<path d="M25.2816 63.8985C26.0202 63.8985 26.619 63.2955 26.619 62.5516C26.619 61.8077 26.0202 61.2047 25.2816 61.2047C24.5429 61.2047 23.9442 61.8077 23.9442 62.5516C23.9442 63.2955 24.5429 63.8985 25.2816 63.8985Z" fill="white"/>
<path d="M30.0632 63.8985C30.8018 63.8985 31.4006 63.2955 31.4006 62.5516C31.4006 61.8077 30.8018 61.2047 30.0632 61.2047C29.3245 61.2047 28.7257 61.8077 28.7257 62.5516C28.7257 63.2955 29.3245 63.8985 30.0632 63.8985Z" fill="white"/>
</svg>
