<svg width="53" height="53" viewBox="0 0 53 53" fill="none" xmlns="http://www.w3.org/2000/svg">
<path d="M38.2142 18.0914C39.023 18.9001 39.023 20.211 38.2142 21.0193L24.3254 34.9086C23.5166 35.7169 22.2061 35.7169 21.3974 34.9086L14.7858 28.2966C13.977 27.4883 13.977 26.1773 14.7858 25.369C15.5941 24.5603 16.905 24.5603 17.7133 25.369L22.8612 30.5169L35.2863 18.0914C36.095 17.2831 37.4059 17.2831 38.2142 18.0914ZM53 26.5C53 41.1479 41.1458 53 26.5 53C11.8521 53 0 41.1458 0 26.5C0 11.8521 11.8542 0 26.5 0C41.1479 0 53 11.8542 53 26.5ZM48.8594 26.5C48.8594 14.1408 38.8576 4.14062 26.5 4.14062C14.1408 4.14062 4.14062 14.1424 4.14062 26.5C4.14062 38.8592 14.1424 48.8594 26.5 48.8594C38.8592 48.8594 48.8594 38.8576 48.8594 26.5Z" fill="white"/>
</svg>
