<svg width="40" height="53" viewBox="0 0 40 53" fill="none" xmlns="http://www.w3.org/2000/svg">
<path d="M35 53H5C2.24444 53 0 50.7718 0 48.0312V24.8438C0 22.1032 2.24444 19.875 5 19.875H35C37.7556 19.875 40 22.1032 40 24.8438V48.0312C40 50.7718 37.7556 53 35 53ZM5 23.1875C4.08222 23.1875 3.33333 23.9295 3.33333 24.8438V48.0312C3.33333 48.9455 4.08222 49.6875 5 49.6875H35C35.9178 49.6875 36.6667 48.9455 36.6667 48.0312V24.8438C36.6667 23.9295 35.9178 23.1875 35 23.1875H5Z" fill="white"/>
<path d="M31.6667 23.1875C30.7467 23.1875 30 22.4455 30 21.5312V13.25C30 7.77112 25.5133 3.3125 20 3.3125C14.4867 3.3125 10 7.77112 10 13.25V21.5312C10 22.4455 9.25334 23.1875 8.33334 23.1875C7.41334 23.1875 6.66667 22.4455 6.66667 21.5312V13.25C6.66667 5.94262 12.6467 0 20 0C27.3533 0 33.3333 5.94262 33.3333 13.25V21.5312C33.3333 22.4455 32.5867 23.1875 31.6667 23.1875Z" fill="white"/>
<path d="M20 37.5417C17.5489 37.5417 15.5556 35.5608 15.5556 33.125C15.5556 30.6892 17.5489 28.7083 20 28.7083C22.4511 28.7083 24.4445 30.6892 24.4445 33.125C24.4445 35.5608 22.4511 37.5417 20 37.5417ZM20 32.0208C19.3889 32.0208 18.8889 32.5155 18.8889 33.125C18.8889 33.7345 19.3889 34.2292 20 34.2292C20.6111 34.2292 21.1111 33.7345 21.1111 33.125C21.1111 32.5155 20.6111 32.0208 20 32.0208Z" fill="white"/>
<path d="M20 44.1667C19.08 44.1667 18.3333 43.4247 18.3333 42.5104V36.4375C18.3333 35.5233 19.08 34.7812 20 34.7812C20.92 34.7812 21.6667 35.5233 21.6667 36.4375V42.5104C21.6667 43.4247 20.92 44.1667 20 44.1667Z" fill="white"/>
</svg>
