<svg width="53" height="53" viewBox="0 0 53 53" fill="none" xmlns="http://www.w3.org/2000/svg">
<path d="M26.5 53C11.8877 53 0 41.1123 0 26.5C0 11.8877 11.8877 0 26.5 0C41.1123 0 53 11.8877 53 26.5C53 41.1123 41.1123 53 26.5 53ZM26.5 3.7856C13.9754 3.7856 3.7856 13.9754 3.7856 26.5C3.7856 39.0246 13.9754 49.2144 26.5 49.2144C39.0246 49.2144 49.2144 39.0246 49.2144 26.5C49.2144 13.9754 39.0246 3.7856 26.5 3.7856Z" fill="white"/>
<path d="M35.9644 37.8572C35.48 37.8572 34.9955 37.6724 34.626 37.3024L15.6976 18.374C14.958 17.6345 14.958 16.4368 15.6976 15.6976C16.4367 14.9584 17.6348 14.958 18.374 15.6976L37.3024 34.626C38.042 35.3656 38.042 36.5633 37.3024 37.3024C36.9328 37.6724 36.4488 37.8572 35.9644 37.8572Z" fill="white"/>
<path d="M17.0356 37.8572C16.5512 37.8572 16.0671 37.6724 15.6976 37.3024C14.958 36.5632 14.958 35.3651 15.6976 34.626L34.626 15.6976C35.3655 14.958 36.5632 14.958 37.3024 15.6976C38.0416 16.4367 38.042 17.6348 37.3024 18.374L18.374 37.3024C18.0044 37.6724 17.52 37.8572 17.0356 37.8572Z" fill="white"/>
</svg>
