<svg width="54" height="60" viewBox="0 0 54 60" fill="none" xmlns="http://www.w3.org/2000/svg">
<path d="M49.9941 9.90005C49.8618 4.33823 39.8107 0 26.9938 0C14.1769 0 4.12582 4.33823 3.99993 9.90005L0.0938414 48.0579C0.0878905 48.0881 0.0727843 48.1691 0.0700377 48.2002L0 48.9001V48.9999C0 55.1678 11.8588 60 26.9998 60C42.1407 60 54 55.1678 54 48.9999C54 48.967 54 48.934 53.995 48.9001L49.9941 9.90005ZM26.9938 1.99997C39.5557 1.99997 47.9937 6.13678 47.9937 9.99985C47.9937 12.778 43.6161 15.688 36.4938 17.1089L27.658 9.25278C27.393 9.00146 27.0126 8.91449 26.6647 9.02573C26.3168 9.13696 26.0572 9.42856 25.9877 9.78699C25.9181 10.1454 26.049 10.5135 26.3301 10.7469L33.9669 17.5369C31.6557 17.8491 29.3261 18.0038 26.9938 18.0002C14.4319 18.0002 5.99395 13.8629 5.99395 9.99985C5.99395 6.13678 14.4319 1.99997 26.9938 1.99997ZM26.9938 58C12.0941 58 2.05993 53.3771 1.99402 49.043L2.0462 48.4918C2.05215 48.4621 2.06497 48.382 2.06909 48.3522L5.614 13.7572C5.63277 13.7782 5.65703 13.7979 5.67718 13.819C5.86211 14.019 6.05895 14.2191 6.27684 14.4099C6.31209 14.4411 6.351 14.4722 6.38717 14.5038C6.57988 14.6741 6.78679 14.8412 6.99919 15.0041C7.05504 15.0481 7.10997 15.0911 7.16811 15.1332C7.41667 15.3177 7.67806 15.4985 7.9518 15.6752L8.10378 15.7681C8.35051 15.9219 8.60732 16.0725 8.87419 16.2199L9.06279 16.3261C9.37178 16.4919 9.69084 16.653 10.0232 16.81L10.2168 16.8979C10.5144 17.0352 10.8201 17.1689 11.1351 17.298L11.3351 17.3799C11.6968 17.5241 12.0698 17.6633 12.453 17.7979L12.6901 17.8789C13.0339 17.9965 13.3859 18.1091 13.7462 18.2181L13.9462 18.279C14.355 18.3998 14.7738 18.5138 15.2028 18.6241L15.482 18.6928C15.8702 18.793 16.2648 18.88 16.6671 18.9661L16.8548 19.0068C17.3048 19.1011 17.7649 19.1881 18.2318 19.2691C18.338 19.2879 18.4451 19.3062 18.5518 19.3231C18.9862 19.3959 19.4252 19.4641 19.8719 19.5232L20.0248 19.5451C20.5119 19.6101 21.0067 19.6669 21.508 19.7191L21.866 19.7539C22.3439 19.7992 22.8259 19.8399 23.3162 19.8729L23.4228 19.8811C23.9401 19.915 24.4651 19.9388 24.9929 19.958L25.3797 19.9709C25.9158 19.986 26.4559 19.9969 27.003 19.9969C27.55 19.9969 28.0902 19.986 28.6257 19.9709L29.013 19.958C29.5417 19.9388 30.0659 19.915 30.5831 19.8811L30.6939 19.8729C31.181 19.8399 31.6621 19.7992 32.1382 19.7539C32.259 19.742 32.3799 19.731 32.4998 19.7182C33.0001 19.6669 33.4931 19.6101 33.9779 19.5461L34.145 19.5209C34.4329 19.482 34.7199 19.4421 35.0028 19.3968V28H32.9937C31.3371 28 29.994 29.3431 29.994 31.0002V34.915L27.0098 51.8262C26.9142 52.3695 27.2767 52.8877 27.8201 52.9839C27.8773 52.9948 27.9354 52.9999 27.994 52.9999C28.4783 52.999 28.8926 52.6511 28.9768 52.1741L31.8328 35.9999H31.9331L30.9938 52.944C30.9786 53.2095 31.0697 53.47 31.2469 53.6678C31.424 53.866 31.6726 53.9854 31.9381 54.0001H31.994C32.525 54.001 32.9644 53.5863 32.9937 53.0562L33.9399 35.9999H34.9941V52.9999C34.9941 53.5524 35.4418 54.0001 35.9939 54.0001C36.5464 54.0001 36.9941 53.5524 36.9941 52.9999V35.9999H38.0479L38.9941 53.0562C39.0238 53.5863 39.4628 54.001 39.9938 54.0001H40.051C40.3161 53.9854 40.5647 53.8655 40.7414 53.6678C40.9185 53.4695 41.0091 53.2091 40.994 52.944L40.051 35.9999H40.1508L43.0059 52.1741C43.0906 52.6529 43.5076 53.0017 43.9938 52.9999C44.0528 52.9999 44.1114 52.9948 44.1691 52.9839C44.712 52.8877 45.0745 52.3695 44.9789 51.8262L41.9938 34.915V31.0002C41.9938 29.3431 40.6507 28 38.9941 28H36.9941V19.0388L37.1401 19.0091L37.3397 18.9651C37.7398 18.8795 38.1312 18.7894 38.5139 18.6942L38.7991 18.6241C39.2262 18.5152 39.6436 18.4012 40.051 18.2808L40.2589 18.2172C40.615 18.1091 40.9634 17.997 41.3039 17.8812L41.547 17.7979C41.9288 17.6646 42.3 17.5255 42.6608 17.3808C42.729 17.3538 42.7949 17.325 42.8608 17.2971C43.1748 17.1675 43.4801 17.0343 43.7759 16.897C43.8409 16.8681 43.9068 16.8388 43.9759 16.8091C44.3092 16.6516 44.6296 16.49 44.9368 16.3239L45.1208 16.2241C45.3909 16.0739 45.6518 15.921 45.9031 15.7649C45.9489 15.7361 45.9969 15.7082 46.0418 15.6779C46.321 15.4999 46.5838 15.3168 46.836 15.1309C46.8891 15.092 46.9358 15.0522 46.9907 15.0128C47.2141 14.8421 47.4261 14.669 47.6261 14.4919C47.6559 14.4658 47.687 14.4411 47.7158 14.415C47.9337 14.2149 48.1351 14.0149 48.3228 13.8148C48.3411 13.7961 48.3617 13.7791 48.3791 13.7599L51.9941 49.0462C51.9231 53.3798 41.894 58 26.9938 58ZM39.9938 33.9999H31.994V31.0002C31.994 30.4477 32.4417 30 32.9937 30H38.9941C39.5461 30 39.9938 30.4477 39.9938 31.0002V33.9999Z" fill="white"/>
<path d="M8.17519 18.1938C7.62679 18.1448 7.13881 18.5413 7.07518 19.0878L5.97106 29.9002C5.94314 30.1643 6.02141 30.4289 6.18895 30.6354C6.3565 30.8418 6.59957 30.9732 6.86415 31.0002H6.96395C7.4771 30.9993 7.90648 30.6107 7.95821 30.0998L9.06508 19.2888C9.12047 18.7413 8.72267 18.252 8.17519 18.1938Z" fill="white"/>
<path d="M6.14409 38.0049C5.59569 37.9541 5.1068 38.351 5.04409 38.898L4.05486 48.5472L4.01092 48.9468C3.98116 49.211 4.05761 49.4756 4.22332 49.6829C4.38903 49.8907 4.63027 50.0235 4.89394 50.0528C4.93148 50.0569 4.96947 50.0587 5.00701 50.0592C5.51604 50.0587 5.94359 49.6761 5.9999 49.1702L7.0381 39.0999C7.09304 38.551 6.69295 38.0608 6.14409 38.0049Z" fill="white"/>
</svg>
